<?xml version="1.0" encoding="UTF-8" standalone="no"?>
<svg
   id="svg3148"
   viewBox="0 0 150 98.276"
   version="1.1"
   sodipodi:docname="logo.svg"
   inkscape:version="1.1.1 (3bf5ae0d25, 2021-09-20, custom)"
   xmlns:inkscape="http://www.inkscape.org/namespaces/inkscape"
   xmlns:sodipodi="http://sodipodi.sourceforge.net/DTD/sodipodi-0.dtd"
   xmlns:xlink="http://www.w3.org/1999/xlink"
   xmlns="http://www.w3.org/2000/svg"
   xmlns:svg="http://www.w3.org/2000/svg"
   xmlns:rdf="http://www.w3.org/1999/02/22-rdf-syntax-ns#"
   xmlns:cc="http://creativecommons.org/ns#"
   xmlns:dc="http://purl.org/dc/elements/1.1/">
  <sodipodi:namedview
     id="namedview222"
     pagecolor="#505050"
     bordercolor="#eeeeee"
     borderopacity="1"
     inkscape:pageshadow="0"
     inkscape:pageopacity="0"
     inkscape:pagecheckerboard="0"
     showgrid="false"
     inkscape:zoom="2.6137575"
     inkscape:cx="153.80157"
     inkscape:cy="-0.95647742"
     inkscape:window-width="1045"
     inkscape:window-height="1041"
     inkscape:window-x="1925"
     inkscape:window-y="1108"
     inkscape:window-maximized="0"
     inkscape:current-layer="layer2" />
  <title
     id="title3261">Stylized Basic Cloud</title>
  <defs
     id="defs3150">
    <linearGradient
       id="linearGradient6712"
       y2="-431.97"
       gradientUnits="userSpaceOnUse"
       x2="285.03"
       y1="-441.05"
       x1="271.02">
      <stop
         id="stop6472"
         stop-color="#fff"
         offset="0" />
      <stop
         id="stop6474"
         stop-color="#fff"
         stop-opacity="0"
         offset="1" />
    </linearGradient>
    <linearGradient
       id="linearGradient6714"
       y2="-436.32"
       gradientUnits="userSpaceOnUse"
       x2="289.68"
       y1="-439.75"
       x1="287.52">
      <stop
         id="stop6499"
         stop-color="#fff"
         offset="0" />
      <stop
         id="stop6501"
         stop-color="#fff"
         stop-opacity="0"
         offset="1" />
    </linearGradient>
    <linearGradient
       id="linearGradient6716"
       y2="-436.14"
       gradientUnits="userSpaceOnUse"
       x2="289.85"
       y1="-441.29"
       x1="286.51">
      <stop
         id="stop6515"
         stop-color="#fff"
         offset="0" />
      <stop
         id="stop6517"
         stop-color="#fff"
         stop-opacity="0"
         offset="1" />
    </linearGradient>
    <linearGradient
       id="linearGradient6718"
       y2="-436.44"
       xlink:href="#linearGradient6538"
       gradientUnits="userSpaceOnUse"
       x2="289.39"
       y1="-439.94"
       x1="285.94" />
    <linearGradient
       id="linearGradient6538">
      <stop
         id="stop6540"
         stop-color="#fff"
         offset="0" />
      <stop
         id="stop6542"
         stop-color="#fff"
         stop-opacity="0"
         offset="1" />
    </linearGradient>
    <linearGradient
       id="linearGradient6720"
       y2="-431.92"
       gradientUnits="userSpaceOnUse"
       x2="279.98"
       y1="-437.11"
       x1="275.94">
      <stop
         id="stop6530"
         stop-color="#fff"
         offset="0" />
      <stop
         id="stop6532"
         stop-color="#fff"
         stop-opacity="0"
         offset="1" />
    </linearGradient>
    <linearGradient
       id="linearGradient6722"
       y2="-436.71"
       gradientUnits="userSpaceOnUse"
       x2="289.77"
       y1="-439.48"
       x1="286.67">
      <stop
         id="stop6551"
         stop-color="#fff"
         offset="0" />
      <stop
         id="stop6553"
         stop-color="#fff"
         stop-opacity="0"
         offset="1" />
    </linearGradient>
    <linearGradient
       id="linearGradient6724"
       y2="-436.83"
       xlink:href="#linearGradient6538"
       gradientUnits="userSpaceOnUse"
       x2="288.9"
       y1="-441.23"
       x1="284.8" />
  </defs>
  <g
     inkscape:groupmode="layer"
     id="layer2"
     inkscape:label="Layer 1">
    <g
       id="g410"
       transform="translate(-0.78657153,-2.6820135)">
      <g
         id="layer1"
         transform="matrix(0.61984205,0,0,0.61984205,-61.681742,-273.10852)">
        <g
           id="g6668"
           transform="matrix(5.1724,0,0,5.1724,-1230.4,2772.5)">
          <path
             id="path6670"
             d="m 280.5,-445.5 c -2.2708,0 -4.1099,1.5503 -4.7188,3.625 -0.69323,-0.36383 -1.4445,-0.625 -2.2812,-0.625 -2.76,0 -5,2.24 -5,5 0,0.57893 0.16252,1.1077 0.34375,1.625 -1.3735,0.77074 -2.3438,2.189 -2.3438,3.875 0,2.484 2.016,4.5 4.5,4.5 h 19 c 2.484,0 4.5,-2.016 4.5,-4.5 0,-1.686 -0.97028,-3.1043 -2.3438,-3.875 0.18124,-0.51729 0.34375,-1.0461 0.34375,-1.625 0,-2.76 -2.24,-5 -5,-5 -0.83674,0 -1.588,0.26117 -2.2812,0.625 -0.60884,-2.0747 -2.4479,-3.625 -4.7188,-3.625 z"
             stroke="#888a85"
             stroke-miterlimit="2"
             fill="#c4c5c2" />
          <path
             id="path6672"
             d="m 280.5,-445 c -2.1897,0 -3.7236,1.3358 -4.3956,3.8435 -0.66846,-0.34362 -1.5476,-0.83335 -2.3544,-0.83335 -2.7165,0 -4.7551,1.9388 -4.7551,4.5455 0,0.54677 0.26721,1.3334 0.44196,1.822 -1.3244,0.72795 -2.4368,1.8905 -2.4368,3.3726 0,2.346 1.5462,4.2501 4.3393,4.2501 h 18.321 c 2.771,0 4.3393,-1.904 4.3393,-4.2501 0,-1.5924 -1.1124,-2.6667 -2.4368,-3.3946 0.17476,-0.48856 0.46407,-1.2532 0.46407,-1.7999 0,-2.6067 -2.1158,-4.5676 -4.7772,-4.5676 -0.80687,0 -1.6418,0.48974 -2.3103,0.83336 -0.65,-2.42 -2.25,-3.82 -4.44,-3.82 z"
             fill="url(#linearGradient6712)"
             style="fill:url(#linearGradient6712)" />
          <g
             id="g6674">
            <path
               id="path6676"
               d="m 291.69,-437.59 c 0,1.8294 -1.4831,3.3125 -3.3125,3.3125 -1.8294,0 -3.3125,-1.4831 -3.3125,-3.3125 0,-1.8294 1.4831,-3.3125 3.3125,-3.3125 1.8294,0 3.3125,1.4831 3.3125,3.3125 z"
               fill="#c4c5c2"
               transform="matrix(1.0566,0,0,1.0566,-24.198,21.863)" />
            <path
               id="path6678"
               d="m 291.69,-437.59 c 0,1.8294 -1.4831,3.3125 -3.3125,3.3125 -1.8294,0 -3.3125,-1.4831 -3.3125,-3.3125 0,-1.8294 1.4831,-3.3125 3.3125,-3.3125 1.8294,0 3.3125,1.4831 3.3125,3.3125 z"
               fill="url(#linearGradient6714)"
               transform="matrix(1.0566,0,0,1.0566,-24.198,21.863)"
               style="fill:url(#linearGradient6714)" />
          </g>
          <rect
             id="rect6680"
             height="9"
             width="20"
             y="-438"
             x="271"
             fill="#c4c5c2" />
          <path
             id="path6682"
             d="m 291.69,-437.59 c 0,1.8294 -1.4831,3.3125 -3.3125,3.3125 -1.8294,0 -3.3125,-1.4831 -3.3125,-3.3125 0,-1.8294 1.4831,-3.3125 3.3125,-3.3125 1.8294,0 3.3125,1.4831 3.3125,3.3125 z"
             fill="#c4c5c2"
             transform="matrix(0.90566,0,0,0.90566,9.8302,-35.689)" />
          <g
             id="g6684">
            <path
               id="path6686"
               d="m 291.69,-437.59 c 0,1.8294 -1.4831,3.3125 -3.3125,3.3125 -1.8294,0 -3.3125,-1.4831 -3.3125,-3.3125 0,-1.8294 1.4831,-3.3125 3.3125,-3.3125 1.8294,0 3.3125,1.4831 3.3125,3.3125 z"
               fill="#c4c5c2"
               transform="matrix(1.0566,0,0,1.0566,-17.198,24.863)" />
            <path
               id="path6688"
               d="m 291.69,-437.59 c 0,1.8294 -1.4831,3.3125 -3.3125,3.3125 -1.8294,0 -3.3125,-1.4831 -3.3125,-3.3125 0,-1.8294 1.4831,-3.3125 3.3125,-3.3125 1.8294,0 3.3125,1.4831 3.3125,3.3125 z"
               fill="url(#linearGradient6716)"
               transform="matrix(1.0566,0,0,1.0566,-17.198,24.863)"
               style="fill:url(#linearGradient6716)" />
          </g>
          <g
             id="g6690">
            <path
               id="path6692"
               d="m 291.69,-437.59 c 0,1.8294 -1.4831,3.3125 -3.3125,3.3125 -1.8294,0 -3.3125,-1.4831 -3.3125,-3.3125 0,-1.8294 1.4831,-3.3125 3.3125,-3.3125 1.8294,0 3.3125,1.4831 3.3125,3.3125 z"
               fill="#c4c5c2"
               transform="matrix(1.0566,0,0,1.0566,-31.198,24.863)" />
            <path
               id="path6694"
               d="m 291.69,-437.59 c 0,1.8294 -1.4831,3.3125 -3.3125,3.3125 -1.8294,0 -3.3125,-1.4831 -3.3125,-3.3125 0,-1.8294 1.4831,-3.3125 3.3125,-3.3125 1.8294,0 3.3125,1.4831 3.3125,3.3125 z"
               fill="url(#linearGradient6718)"
               transform="matrix(1.0566,0,0,1.0566,-31.198,24.863)"
               style="fill:url(#linearGradient6718)" />
          </g>
          <g
             id="g6696"
             transform="translate(-1)">
            <path
               id="path6698"
               d="m 280.47,-440.97 c -3.5794,0 -6.4688,2.9206 -6.4688,6.5 0,2.3707 1.3494,4.3378 3.25,5.4688 h 6.4688 c 1.9006,-1.131 3.25,-3.1293 3.25,-5.5 0,-3.5794 -2.9206,-6.4688 -6.5,-6.4688 z"
               fill="#c4c5c2" />
            <path
               id="path6700"
               d="m 280.5,-441 c -3.588,0 -6.5,2.912 -6.5,6.5 0,2.3764 1.3448,4.3663 3.25,5.5 h 6.5 c 1.9052,-1.1337 3.25,-3.1236 3.25,-5.5 0,-3.588 -2.912,-6.5 -6.5,-6.5 z"
               fill="url(#linearGradient6720)"
               style="fill:url(#linearGradient6720)" />
          </g>
          <path
             id="path6702"
             d="m 291.69,-437.59 c 0,1.8294 -1.4831,3.3125 -3.3125,3.3125 -1.8294,0 -3.3125,-1.4831 -3.3125,-3.3125 0,-1.8294 1.4831,-3.3125 3.3125,-3.3125 1.8294,0 3.3125,1.4831 3.3125,3.3125 z"
             fill="url(#linearGradient6722)"
             transform="matrix(0.90566,0,0,0.90566,9.8303,-35.689)"
             style="fill:url(#linearGradient6722)" />
          <path
             id="path6704"
             d="m 292.96,-437.33 c -0.002,2.6846 -3.2693,3.714 -3.2693,3.714 0,0 2.3487,-1.626 2.3368,-3.705 l 0.93241,-0.009 z"
             fill="#888a85"
             fill-rule="evenodd" />
          <g
             id="g6706"
             transform="matrix(1.1429,0,0,1.1429,-28.571,67)">
            <path
               id="path6708"
               d="m 291.69,-437.59 c 0,1.8294 -1.4831,3.3125 -3.3125,3.3125 -1.8294,0 -3.3125,-1.4831 -3.3125,-3.3125 0,-1.8294 1.4831,-3.3125 3.3125,-3.3125 1.8294,0 3.3125,1.4831 3.3125,3.3125 z"
               fill="#c4c5c2"
               transform="matrix(1.0566,0,0,1.0566,-31.198,24.863)" />
            <path
               id="path6710"
               d="m 291.69,-437.59 c 0,1.8294 -1.4831,3.3125 -3.3125,3.3125 -1.8294,0 -3.3125,-1.4831 -3.3125,-3.3125 0,-1.8294 1.4831,-3.3125 3.3125,-3.3125 1.8294,0 3.3125,1.4831 3.3125,3.3125 z"
               fill="url(#linearGradient6724)"
               transform="matrix(1.0566,0,0,1.0566,-31.198,24.863)"
               style="fill:url(#linearGradient6724)" />
          </g>
        </g>
      </g>
      <g
         id="g3777"
         transform="matrix(0.16866646,0,0,0.16866646,26.624618,10.991103)">
        <path
           id="path1315"
           stroke-linejoin="round"
           d="m 267.61,121.75 c -60.11,14.5 -110.79,59.33 -121.56,117.83 -12.82,69.6 38.05,137.62 116.12,145.29 67.95,6.68 136.85,-37.62 146.02,-101.32 7.67,-53.32 -32.75,-105.49 -93.82,-108.07 -47.64,-2.01 -96.9,31.24 -97.08,77.44 -0.06,15.11 7.1,30.93 19.16,42.04 12.05,11.1 30.36,17.21 49.63,10.05 3.69,-1.37 5.58,-5.15 4.23,-8.43 -1.35,-3.28 -5.44,-4.83 -9.12,-3.45 -13.75,5.11 -25.06,1.19 -34.4,-7.41 -9.34,-8.6 -15.33,-22.12 -15.29,-33.35 0.15,-37.85 41.61,-65.75 81.59,-64.06 52.48,2.22 87.68,47.73 81.01,94.13 -8.08,56.12 -69.42,95.6 -129.78,89.66 -69.89,-6.86 -115.81,-68.3 -104.27,-130.97 13,-70.63 90.79,-119.62 167.19,-110.41 18.47,2.22 36.3,7.67 52.32,15.88 3.35,1.72 7.73,0.58 9.78,-2.54 2.05,-3.12 0.99,-7.04 -2.36,-8.76 -17.52,-8.98 -37.01,-14.89 -57.25,-17.33 -21.01,-2.53 -42.09,-1.05 -62.12,3.78 z"
           fill-rule="evenodd"
           stroke="#080801"
           stroke-linecap="round"
           stroke-width="2.5"
           fill="#f0dc11" />
        <path
           id="path2088"
           stroke-linejoin="round"
           d="m 493.62,137.41 c -0.94,0.03 -1.86,0.29 -2.68,0.75 l -68.78,36.78 c -1.97,0.96 -3.25,2.91 -3.35,5.1 -0.1,2.18 1,4.24 2.87,5.38 1.87,1.13 4.21,1.15 6.1,0.05 l 68.78,-36.78 c 2.49,-1.28 3.75,-4.11 3.05,-6.82 -0.71,-2.7 -3.19,-4.56 -5.99,-4.46 z"
           fill-rule="evenodd"
           stroke="#000000"
           stroke-linecap="round"
           stroke-width="2.5"
           fill="#f3df12" />
        <use
           id="use2100"
           xlink:href="#path2088"
           transform="matrix(0.48337,-0.87541,0.87541,0.48337,-83.627,378.18)"
           height="480"
           width="640"
           y="0"
           x="0" />
        <use
           id="use2102"
           xlink:href="#path2088"
           transform="matrix(-0.53439,-0.84524,0.84524,-0.53439,208.85,632.35)"
           height="480"
           width="640"
           y="0"
           x="0" />
        <use
           id="use2104"
           xlink:href="#path2088"
           transform="matrix(-0.95985,0.28052,-0.28052,-0.95985,621.45,430.93)"
           height="480"
           width="640"
           y="0"
           x="0" />
        <use
           id="use2106"
           xlink:href="#path2088"
           transform="matrix(0.13908,0.99028,-0.99028,0.13908,497.09,-54.488)"
           height="480"
           width="640"
           y="0"
           x="0" />
      </g>
    </g>
  </g>
  <metadata
     id="metadata428">
    <rdf:RDF>
      <cc:Work
         rdf:about="">
        <dc:title>Stylized Basic Cloud</dc:title>
      </cc:Work>
    </rdf:RDF>
  </metadata>
</svg>
